<?xml version="1.0" encoding="UTF-8" standalone="no"?>
<!DOCTYPE svg PUBLIC "-//W3C//DTD SVG 1.1//EN" "http://www.w3.org/Graphics/SVG/1.1/DTD/svg11.dtd">
<svg version="1.1" xmlns="http://www.w3.org/2000/svg" xmlns:xlink="http://www.w3.org/1999/xlink" preserveAspectRatio="xMidYMid meet" viewBox="0 0 640 640" width="400" height="400"><defs><path d="M343.53 284.58C343.63 277.24 334.74 279.37 336.46 285.56C337.72 290.11 335.9 291.49 333.41 294.16C333.32 294.25 333.32 294.39 333.39 294.49C333.47 294.59 333.61 294.61 333.71 294.55C337.55 292.38 343.44 291.21 343.53 284.58Z" id="dYv83MPAK"></path><path d="M306.61 294.49C306.8 294.25 306.5 294.06 306 293.53C300 287.21 305.84 285.28 302.93 281.45C300.98 278.89 296.4 279.35 296.47 284.58C296.56 291.21 302.47 292.39 306.29 294.55C306.4 294.61 306.53 294.58 306.61 294.49Z" id="aEhuunmkm"></path><path d="M356.34 275.55C356.45 267.07 346.2 269.54 348.19 276.68C349.66 281.99 347.54 283.61 344.63 286.73C344.54 286.82 344.54 286.95 344.61 287.05C344.69 287.15 344.82 287.17 344.93 287.11C349.59 284.49 356.24 283.26 356.34 275.55Z" id="i1rhvgRJJq"></path><path d="M295.39 287.05C295.58 286.81 295.29 286.63 294.68 285.98C287.65 278.59 294.5 276.39 291.11 271.93C288.86 268.98 283.59 269.49 283.67 275.55C283.77 283.26 290.41 284.48 295.07 287.11C295.18 287.17 295.32 287.15 295.39 287.05Z" id="dKa8u5eNL"></path><path d="M542.97 322.77C542.97 322.77 542.94 322.75 542.89 322.72C542.87 322.74 542.86 322.76 542.86 322.76C541.37 322.63 539.88 322.5 538.38 322.36C550.85 321.55 585.64 320.32 586.35 308.45C586.76 301.43 579.3 301.34 577.37 304.98C575.92 307.7 577.9 311.49 581.56 309.97C584.66 308.69 583.18 305.34 581.35 305.2C580.15 305.12 578.62 306.2 579.22 306.51C579.34 306.57 579.49 306.52 579.55 306.4C579.66 306.23 580.56 305.6 581.39 305.71C582.62 305.86 583.98 308.43 581.37 309.51C578.08 310.88 576.62 307.45 577.81 305.21C579.5 302.03 586.23 301.95 585.85 308.42C585.17 319.9 549.93 321.11 537.89 321.89C534.73 322.1 535.96 322.14 531.43 321.69C533.51 317.2 532.71 311.72 529.24 308.44C520.09 299.8 506.9 313.85 500.78 318.07C493.81 317.1 487.57 316.13 482.4 315.19C479.42 305.88 488.5 301.21 493.64 304.86C497.28 307.45 497.66 313.9 491.52 314.37C486.58 314.74 486.45 309.49 488.53 308.24C489.8 307.47 491.68 307.78 491.92 307.98C492.03 308.07 492.19 308.05 492.27 307.94C492.78 307.32 489.92 306.82 488.27 307.81C485.78 309.31 486.03 315.28 491.56 314.87C498.1 314.37 497.99 307.34 493.93 304.45C488.49 300.59 478.98 305.41 481.85 315.09C469.06 312.75 471.47 312.68 455.81 307.63C457.73 293 437.1 275.52 423.35 292.96C423.39 293 423.67 293.28 423.7 293.32C440.94 280.25 451.04 294.8 452.3 306.52C432.53 300.33 414.25 296.15 397.57 294.01C397.17 289.78 395.15 286.14 391.53 283.15C383.63 276.64 370.15 281.99 370.2 292.34C355.83 292.55 340.86 294.73 327.94 300.72C326.65 296.53 323.81 293.29 320 291.06C316.27 293.25 313.38 296.46 312.07 300.72C299.14 294.73 284.17 292.55 269.8 292.34C269.83 287.06 265.89 281.89 259.55 280.61C250.38 278.76 243.17 286.17 242.43 294.01C225.76 296.15 207.47 300.33 187.7 306.52C188.98 294.72 199.12 280.28 216.31 293.32C216.34 293.28 216.62 293 216.65 292.96C203.01 275.65 182.25 292.72 184.2 307.63C168.49 312.69 170.96 312.75 158.16 315.09C162.22 301.39 142.77 298.95 143.26 310.54C143.46 315.23 152.15 316.71 153.07 312.02C154.13 306.63 148.62 306.91 147.77 307.59C147.51 307.8 147.82 308.19 148.08 307.98C148.46 307.67 153.57 306.89 152.58 311.92C151.79 315.98 143.93 314.67 143.76 310.52C143.3 299.57 161.8 302.09 157.6 315.19C152.43 316.13 146.2 317.1 139.23 318.07C135.95 315.8 132.93 313.16 130.96 311.59C113.77 297.8 103.96 311.74 108.58 321.69C102.69 322.28 54.92 321.28 54.16 308.42C53.64 299.78 65.33 302.95 62.06 308.78C60.92 310.82 56.57 309.51 57.2 307.28C57.98 304.52 60.3 306.15 60.45 306.4C60.62 306.69 61.03 306.46 60.9 306.19C60.63 305.6 57.65 303.86 56.72 307.14C55.92 309.98 61.08 311.55 62.5 309.03C66.22 302.4 53.1 298.96 53.66 308.45C54.37 320.36 89.3 321.56 101.62 322.36C100.13 322.5 98.64 322.63 97.16 322.76C97.15 322.76 97.14 322.74 97.12 322.71C97.08 322.75 97.05 322.77 97.04 322.77C76.35 324.58 56.92 325.54 41.62 325.48C41.48 325.48 41.37 325.59 41.37 325.73C41.37 326.44 68.23 325.76 96.23 323.34C95.6 323.78 90.55 327.31 89.92 327.75C89.21 326.9 86.36 326.91 86.13 327.02C77.37 331.1 67.47 334.16 58.52 330.8C57.68 330.48 58.19 338.27 70.99 335.84C68.25 337.6 64.36 338.63 61.12 340.26C59.54 341.05 54.08 347.26 54.31 347.67C54.41 347.85 54.28 347.77 56.8 347.76C63.24 347.73 63.24 347.83 68.7 343.76C70.48 342.43 72.31 341.07 74.23 340.19C66.17 348.5 69.29 351.25 70.59 353.53C70.71 353.72 71.01 353.67 71.05 353.45C72.51 346.12 78.63 340.88 84.54 335.82C84.78 335.62 89.8 331.33 89.88 331.03C90.23 329.72 90.38 328.82 90.17 328.19C90.87 327.69 96.51 323.75 97.22 323.26C101.05 322.92 104.92 322.56 108.81 322.17C113.41 331.01 131.14 331.35 141.13 330.66C130.24 333.29 120.75 336.22 115.97 341C111.37 340.32 107.96 342.71 108.31 347.69C107.92 347.76 107.43 347.79 107.02 347.77C107.96 345.32 105.97 342.72 103.54 342.72C100.32 342.72 100.08 346.66 94.92 346.66C93.23 346.66 92.1 346.26 89.99 346.19C92.47 351.7 96.21 350.66 100.46 350.48C102.43 351.19 101.2 353.38 99.8 353.4C97.7 352.8 95.88 353.36 94.51 354.86C90.94 358.78 93.54 361.54 92.08 366C91.84 366.74 91.83 366.82 91.67 367.54C94.12 366.33 95.58 366.3 99.16 366.21C108.29 365.5 103.81 356.5 106.95 356.5C108.45 356.5 107.97 358.57 107.82 359.46C107.23 363.1 107.45 365.34 112.48 368.39C112.73 364.89 112.06 359.82 113.58 359C116.6 357.09 117.5 350.74 110.91 350.97C110.94 350.6 110.98 350.14 111.13 349.77C115.56 350.23 117.61 345.53 116.35 341.33C126.16 331.54 156.76 329.49 176.4 321.99C180.3 320.5 184.07 319.09 187.72 317.76C189.94 321.41 192.95 324.28 196.51 326.42C192.9 329.45 189.95 332.44 187.6 335.41C186.77 334.7 185.25 335.23 183.68 335.79C182.87 336.08 172.17 348.83 158.79 348.55C157.9 348.47 159.79 351.98 163.93 351.98C166.22 351.98 169.01 351.04 172.22 349.18C167.48 355.27 163.81 353.62 160.33 365.61C160.31 365.7 160.33 365.8 160.41 365.86C160.56 366 167.77 363.53 168.95 362.33C171.81 359.39 173.79 355.03 176.72 352.21C171.87 362.72 175.72 364.28 177.7 366C177.88 366.15 178.15 366 178.11 365.77C176.25 352.65 190.64 340.48 187.92 335.81C190.29 332.79 193.29 329.76 196.96 326.68C206.09 331.92 221.72 333.83 243.26 323.27C236.55 331.81 233.34 342.67 233.98 342.84C234.11 342.87 234.25 342.8 234.28 342.66C236.33 334.82 239.78 328.23 244.19 322.8C244.22 322.79 244.36 322.72 244.56 322.62C244.71 322.38 244.87 322.15 245.16 321.82C245.19 321.8 245.43 321.66 245.46 321.64C245.48 321.55 245.5 321.52 245.52 321.44C247 319.95 249.9 317.92 253.9 315.8C263.35 321.04 277.77 319.51 280.54 318.56C286.76 316.47 294.63 313.54 304.48 313.49C304.48 313.49 304.48 313.49 304.48 313.49C304.82 313.51 305.15 313.53 305.49 313.55C301.31 313.87 291.33 317.2 288.05 324.81C285.01 328.55 280.68 331.76 277.53 332.61C274.77 329.14 270.72 328.4 267.5 332.23C267.16 332.01 266.79 331.69 266.52 331.39C269.92 329.81 269.23 323.76 264.01 324.35C258.94 324.19 257.75 320.86 255.39 318.4C253.4 323.91 256.37 325.61 259.92 328.77C260.84 330.65 258.42 331.37 257.42 330.41C254.67 325.67 248.83 328.35 247.2 330.38C244.61 333.72 243.79 333.56 241.73 334.9C248.83 337.18 249.47 345.68 258.35 337.8C259.41 337.02 260.31 337.28 260.59 337.91C261.06 338.93 259.86 339.67 258.96 340.34C255.98 342.56 254.6 344.32 256.08 350C258.58 347.77 261.41 343.99 263.15 343.99C263.18 343.99 263.82 344.12 264.29 344.12C267.77 344.12 271.52 340.42 267.08 336.4C267.35 336.15 267.7 335.85 268.08 335.69C270.96 339.13 275.78 337.13 277.81 333.05C280.77 332.2 284.56 329.52 287.54 326.17C284.96 334.4 289.79 344.25 298.38 344.25C302.98 344.25 307.46 341.42 308.78 336.87C310.63 330.44 304.92 322.87 297.62 327.77C291.44 331.91 296.19 338.43 300.02 337.94C302.56 337.62 305 334.82 304.14 334.62C304 334.59 303.87 334.67 303.84 334.81C303.74 335.25 302.03 337.19 299.96 337.45C296.6 337.88 292.2 332 297.9 328.18C304.87 323.5 310.01 330.82 308.3 336.73C306.57 342.69 299.21 345.4 293.95 342.73C288.01 339.7 285.79 331.4 288.48 325.07C288.55 324.98 288.61 324.93 288.59 324.81C291.42 318.53 297.96 316.05 302.97 314.42C305.89 313.75 309.2 313.77 312.94 314.81C314.83 319.87 316.85 321.78 320 325.89C323.15 321.78 325.16 319.87 327.05 314.81C338.48 311.64 348.65 318.7 351.4 324.81C351.39 324.93 351.44 324.98 351.52 325.08C355.84 335.26 347.55 347.31 337.25 342.85C326.21 338.06 332.42 321.69 342.1 328.18C347.81 332.01 343.36 337.87 340.04 337.45C337.96 337.19 336.25 335.25 336.16 334.81C336.12 334.67 335.99 334.59 335.86 334.62C334.99 334.82 337.44 337.62 339.97 337.94C343.81 338.43 348.55 331.91 342.38 327.77C335.07 322.87 329.36 330.44 331.22 336.87C332.54 341.42 337.01 344.25 341.61 344.25C350.21 344.25 355.03 334.38 352.46 326.18C355.44 329.52 359.23 332.2 362.19 333.05C364.2 337.1 369.02 339.15 371.92 335.69C372.29 335.85 372.64 336.15 372.92 336.41C368.04 340.82 373.06 344.77 376.58 344.03C378.26 343.56 381.31 347.67 383.92 350C385.86 342.52 382.52 341.76 379.71 339.3C378.91 338.38 379.4 337.32 380.38 337.32C382.66 337.32 385.67 344.39 391.95 339.16C394.62 336.72 395.68 335.73 398.27 334.9C396.2 333.55 395.38 333.72 392.8 330.39C391.2 328.4 385.35 325.64 382.58 330.41C381.58 331.36 379.15 330.66 380.08 328.78C383.57 325.66 386.61 323.95 384.61 318.4C381.66 321.47 381.12 324.31 375.31 324.31C370.69 324.31 370.25 329.89 373.48 331.39C373.21 331.69 372.84 332.01 372.5 332.23C369.27 328.38 365.21 329.16 362.47 332.61C359.32 331.76 354.98 328.56 351.95 324.81C349.24 318.53 340.95 314.05 334.51 313.55C334.84 313.53 335.18 313.51 335.52 313.49C335.52 313.49 335.52 313.49 335.52 313.49C352.06 313.57 354.45 319.52 368.87 319.52C374.64 319.52 381.06 318.59 386.09 315.8C390.1 317.93 393 319.96 394.48 321.44C394.5 321.5 394.52 321.58 394.54 321.64C394.57 321.66 394.81 321.81 394.84 321.82C395.13 322.15 395.29 322.38 395.44 322.62C395.64 322.72 395.79 322.8 395.81 322.8C400.22 328.23 403.67 334.82 405.71 342.66C405.75 342.8 405.89 342.87 406.02 342.84C406.59 342.69 403.67 332.09 396.74 323.27C418.27 333.83 433.9 331.92 443.03 326.68C446.71 329.76 449.71 332.79 452.08 335.81C451.73 336.4 451.62 337.3 451.53 338.39C451.51 338.69 454.85 344.44 454.99 344.68C458.89 351.41 462.93 358.37 461.88 365.77C461.85 366 462.12 366.15 462.29 366C464.28 364.28 468.12 362.72 463.28 352.21C464.8 353.67 466.07 355.57 467.31 357.41C471.12 363.07 471.19 362.97 477.21 365.12C478.77 365.68 479.84 366.23 479.66 365.61C476.19 353.62 472.51 355.25 467.77 349.18C479.15 355.77 482.09 348.47 481.21 348.55C467.85 348.83 457.09 336.07 456.32 335.79C454.29 335.07 453.12 334.79 452.4 335.41C450.05 332.44 447.1 329.45 443.49 326.42C447.03 324.29 450.05 321.42 452.28 317.76C468.26 323.59 467.08 323.97 489.63 329.05C504.04 332.29 517.67 335.36 523.65 341.33C522.39 345.52 524.44 350.23 528.87 349.77C529.02 350.14 529.06 350.6 529.08 350.97C522.47 350.74 523.41 357.11 526.41 359C527.94 359.82 527.27 364.86 527.51 368.4C527.55 368.37 527.83 368.2 527.86 368.18C534.12 364.36 532.21 361.08 531.95 357.79C532.04 356.12 534.03 355.94 534.37 358.05C535.26 369.86 541.95 364.39 547.86 367.31C547.91 367.33 548.28 367.52 548.33 367.54C548.17 366.83 548.16 366.75 547.92 366C546.42 361.42 549.11 358.84 545.49 354.86C544.12 353.36 542.3 352.8 540.19 353.4C538.8 353.38 537.57 351.19 539.54 350.48C543.8 350.66 547.52 351.7 550.01 346.19C547.9 346.27 546.76 346.66 545.08 346.66C539.92 346.66 539.67 342.72 536.45 342.72C534.04 342.72 532.04 345.31 532.98 347.77C532.57 347.79 532.07 347.76 531.69 347.69C532.05 342.6 528.48 340.34 524.02 341C519.25 336.22 509.76 333.29 498.87 330.66C508.81 331.34 526.58 331.02 531.18 322.17C535.08 322.56 538.96 322.92 542.79 323.26C543.49 323.75 549.13 327.69 549.83 328.18C548.07 333.27 566.33 340.31 568.94 353.45C568.99 353.67 569.29 353.72 569.41 353.52C570.71 351.25 573.83 348.5 565.77 340.19C567.69 341.07 569.52 342.43 571.3 343.76C576.76 347.84 576.8 347.73 583.19 347.76C585.72 347.77 585.59 347.85 585.68 347.67C585.92 347.25 580.45 341.05 578.87 340.25C575.63 338.63 571.74 337.6 569.01 335.84C581.72 338.25 582.38 330.45 581.48 330.8C572.53 334.16 562.64 331.11 553.87 327.02C553.63 326.91 550.8 326.9 550.08 327.75C549.45 327.31 544.41 323.78 543.78 323.34C572.15 325.79 598.63 326.42 598.63 325.72C598.63 325.59 598.52 325.48 598.38 325.48C583.09 325.54 563.66 324.58 542.97 322.77ZM530.9 321.64C521.25 320.66 511.14 319.49 501.5 318.17C507.09 314.23 520.14 300.54 528.9 308.81C532.25 311.97 532.99 317.31 530.9 321.64ZM489.16 322.11C486.05 321.33 483.72 318.77 482.59 315.73C487.58 316.63 493.53 317.56 500.16 318.49C496.39 321 492.34 322.91 489.16 322.11ZM403.95 302.6C416.84 305.81 432.04 310.44 450.34 317.05C448.54 320.38 445.68 323.13 441.98 325.17C433.13 318.06 420.66 310.67 403.95 302.6ZM395.32 321.53C395.16 321.34 394.99 321.15 394.83 320.97C393.98 318.96 391.7 316.61 388.46 314.27C392.31 311.34 395.62 305.46 396.88 300.92C407.29 303.25 431.12 317.12 441.5 325.43C430.52 331.21 411.26 331.08 395.32 321.53ZM311.79 305.45C311.84 304.09 312.03 302.74 312.38 301.42C315.1 302.7 317.64 304.13 320 305.69C322.37 304.13 324.91 302.7 327.62 301.42C327.98 302.74 328.17 304.09 328.21 305.45C325.32 306.65 322.58 308.14 320 309.91C317.43 308.14 314.69 306.65 311.79 305.45ZM244.69 321.53C228.75 331.08 209.49 331.22 198.5 325.43C208.06 317.78 232.18 303.37 243.12 300.93C244.38 305.45 247.7 311.34 251.55 314.27C248.31 316.61 246.04 318.96 245.18 320.96C245.02 321.15 244.85 321.34 244.69 321.53ZM189.67 317.05C207.96 310.44 223.17 305.81 236.05 302.6C219.35 310.67 206.88 318.06 198.03 325.17C194.33 323.12 191.47 320.38 189.67 317.05ZM328.12 308.22C327.91 310.35 327.4 312.44 326.68 314.39C324.33 315.06 322.1 315.96 320 317.07C317.91 315.96 315.67 315.06 313.32 314.39C312.61 312.44 312.09 310.35 311.88 308.22C314.65 309.22 317.38 310.51 320 312.17C322.63 310.51 325.36 309.22 328.12 308.22ZM450.57 316.6C430.18 309.23 412.48 303.88 397.01 300.42C397.56 298.28 397.73 296.34 397.61 294.52C414.29 296.67 432.58 300.86 452.36 307.06C452.64 310.38 452.19 313.39 450.57 316.6ZM370.72 292.83C375.98 292.76 381.45 292.96 387.13 293.42C387.63 295.2 387.21 296.82 386.03 298.21C380.82 297.29 376.01 296.63 371.41 296.17C371.05 295.16 370.78 294.04 370.72 292.83ZM371.62 296.71C375.9 297.14 380.53 297.78 385.61 298.67C382.34 301.88 374.38 303.41 371.62 296.71ZM397.11 294.45C397.26 296.33 397.07 298.29 396.56 300.32C393.13 299.56 389.82 298.89 386.6 298.31C387.7 296.89 388.1 295.2 387.66 293.46C390.75 293.71 393.9 294.05 397.11 294.45ZM397.07 293.95C393.82 293.54 390.64 293.2 387.51 292.95C384.6 283.5 375.37 290.38 376.62 290.95C376.75 291 376.89 290.95 376.95 290.82C377.19 290.29 379.81 288.31 382.46 288.51C384.56 288.67 386.08 290.15 386.98 292.9C381.35 292.46 375.92 292.27 370.7 292.33C370.66 282.38 383.64 277.29 391.21 283.54C394.68 286.4 396.63 289.96 397.07 293.95ZM370.86 296.12C359.93 295.08 351.34 295.34 343.67 295.9C352.36 293.84 361.28 292.97 370.22 292.83C370.28 294.01 370.52 295.12 370.86 296.12ZM342.71 296.47C350.65 295.86 359.57 295.54 371.06 296.66C374 304.18 382.91 302.38 386.22 298.77C389.44 299.35 392.83 300.03 396.42 300.82C395.18 305.24 391.86 311.11 388.03 313.96C371.72 302.49 346.91 297.94 328.7 305.25C328.64 303.89 328.44 302.53 328.08 301.21C332.51 299.15 337.4 297.45 342.68 296.14C342.68 296.14 342.71 296.44 342.71 296.47ZM327.48 300.94C324.83 302.19 322.33 303.57 320 305.09C317.68 303.57 315.18 302.19 312.52 300.94C313.75 296.9 316.43 293.8 320 291.63C323.57 293.8 326.26 296.9 327.48 300.94ZM251.98 313.96C248.14 311.1 244.82 305.23 243.58 300.82C247.17 300.03 250.57 299.35 253.79 298.77C257.05 302.33 265.97 304.26 268.94 296.66C280.44 295.54 289.35 295.86 297.3 296.47C297.3 296.44 297.32 296.17 297.32 296.14C302.61 297.45 307.49 299.14 311.93 301.21C311.56 302.53 311.36 303.89 311.31 305.25C292.62 297.75 267.66 302.93 251.98 313.96ZM252.35 293.46C251.91 295.2 252.31 296.89 253.4 298.31C250.19 298.89 246.87 299.56 243.45 300.32C242.93 298.29 242.75 296.33 242.89 294.45C246.11 294.05 249.26 293.72 252.35 293.46ZM252.87 293.42C258.55 292.96 264.03 292.76 269.29 292.83C269.23 294.04 268.96 295.16 268.59 296.17C263.72 296.65 258.88 297.34 253.97 298.21C252.78 296.8 252.38 295.18 252.87 293.42ZM254.4 298.67C259.47 297.78 264.11 297.14 268.38 296.71C265.66 303.32 257.73 301.95 254.4 298.67ZM269.14 296.12C269.48 295.12 269.73 294.01 269.79 292.83C278.73 292.97 287.64 293.84 296.34 295.9C288.66 295.34 280.07 295.08 269.14 296.12ZM253.03 292.9C255.57 285.07 262.63 289.88 263.05 290.82C263.19 291.12 263.64 290.92 263.51 290.62C262.9 289.27 255.14 284.37 252.49 292.95C249.37 293.2 246.18 293.54 242.94 293.95C244.88 276.28 269.37 277.47 269.3 292.33C264.08 292.27 258.66 292.46 253.03 292.9ZM242.99 300.42C227.52 303.88 209.83 309.23 189.44 316.6C187.83 313.4 187.37 310.39 187.65 307.06C207.43 300.86 225.72 296.67 242.39 294.52C242.28 296.34 242.45 298.28 242.99 300.42ZM150.85 322.11C147.66 322.91 143.62 321 139.85 318.49C146.48 317.56 152.43 316.63 157.42 315.73C156.28 318.78 153.94 321.33 150.85 322.11ZM138.51 318.17C128.87 319.49 118.76 320.66 109.11 321.64C104.67 312.45 113.22 297.55 132.28 313.31C134.02 314.75 136.19 316.54 138.51 318.17ZM109.35 322.11C119.01 321.14 129.25 319.95 139.11 318.59C142.37 320.81 147.15 323.56 150.97 322.59C154.34 321.74 156.84 318.93 157.99 315.63C171.06 313.25 168.75 313.14 184.27 308.13C184.76 311.43 185.85 314.53 187.46 317.32C167.68 324.54 174.97 322.82 144.33 329.91C143.96 329.87 115.44 333.34 109.35 322.11ZM304.59 312.99C294.71 312.99 286.58 316.01 280.39 318.09C278.22 318.83 264.1 320.68 254.44 315.52C270.61 307.08 293.6 301.9 311.38 308.04C311.57 310.17 312.05 312.26 312.74 314.23C312.24 314.1 311.74 313.98 311.23 313.87C311.17 313.56 305.43 312.99 304.59 312.99ZM313.54 314.97C315.82 315.65 317.98 316.54 320.01 317.63C322.03 316.54 324.19 315.65 326.47 314.97C324.64 319.67 322.77 321.49 320.01 325.07C317.28 321.54 315.38 319.69 313.54 314.97ZM335.37 313C334.8 313.03 328.85 313.49 328.78 313.87C328.27 313.98 327.76 314.1 327.27 314.23C327.95 312.27 328.44 310.17 328.63 308.05C346.62 301.83 369.72 307.25 385.57 315.52C376.3 320.48 362.33 319.02 359.62 318.09C359.38 318.01 341.91 311.76 335.37 313ZM452.55 317.32C454.16 314.54 455.25 311.43 455.74 308.13C471.27 313.14 468.96 313.25 482.02 315.63C483.62 320.23 487.34 322.79 490.71 322.79C493.87 322.79 497.52 320.89 500.9 318.59C510.76 319.95 521 321.14 530.65 322.11C524.56 333.35 496.23 329.85 495.67 329.91C465.62 322.95 472.82 324.72 452.55 317.32Z" id="a5J2Yc1A7l"></path><path d="M394.75 354.14C397.02 355.51 403.84 354.06 405.51 344.71C405.54 344.53 405.38 344.38 405.2 344.42C393.53 347.47 394.34 353.89 394.75 354.14Z" id="a3Xfd2Yws"></path><path d="M247.36 353.94C247.74 346.65 236.34 343.85 236.49 344.71C238.48 355.86 247.31 355.13 247.36 353.94Z" id="boSkpiCm6"></path><path d="M406.81 369.8C413.81 369.35 410.62 358.28 406.51 351.22C400.3 362.59 402.06 370.26 406.81 369.8Z" id="a2L2soMvDu"></path><path d="M232.62 369.82C237.32 369.82 238.25 361.7 232.52 351.22C226.86 360.93 226.38 369.82 232.62 369.82Z" id="b6KobsbFvB"></path><path d="M418.59 354.08C418.98 346.75 407.58 344.03 407.72 344.84C409.69 355.92 418.53 355.34 418.59 354.08Z" id="h1UyYxV2oE"></path><path d="M221.42 354.08C221.44 354.5 222.77 354.72 223.41 354.72C230.3 354.72 233.23 344.24 231.98 344.56C224.74 346.45 221.19 349.65 221.42 354.08Z" id="aKO7oMxND"></path><path d="M608.14 338.49C608.56 338.49 609.51 336.45 608.52 333.72C606.63 328.53 599.84 326.72 599.55 326.99C599.32 327.21 600.81 338.3 608.14 338.49Z" id="ce984TViV"></path><path d="M31.84 338.49C39.01 338.47 40.68 327.21 40.44 326.99C40.2 326.77 33.4 328.41 31.47 333.72C30.49 336.44 31.43 338.49 31.84 338.49Z" id="egtHeWWrB"></path><path d="M624.92 327.59C625.01 320.35 613.35 323.08 606.37 326.44C616.86 333.29 625.01 332.54 624.92 327.59Z" id="e2uX6Gmwi8"></path><path d="M15.09 327.59C15 332.51 23.09 333.32 33.64 326.44C23.27 321.43 15.01 321.99 15.09 327.59Z" id="a3rafv1arg"></path><path d="M610.35 314.77C610.19 314.46 603.87 312.8 599.84 324.42C599.78 324.59 599.93 324.77 600.1 324.75C609.49 323.82 611.55 317.17 610.35 314.77Z" id="b2JiXY7Ef4"></path><path d="M29.66 314.77C29.18 315.71 29.18 317.51 30.22 319.4C32.82 324.1 40.52 325.47 40.16 324.42C36.22 313.05 29.88 314.33 29.66 314.77Z" id="a4jTBvx7rl"></path></defs><g><g><g><use xlink:href="#dYv83MPAK" opacity="1" fill="#97b94d" fill-opacity="1"></use><g><use xlink:href="#dYv83MPAK" opacity="1" fill-opacity="0" stroke="#000000" stroke-width="1" stroke-opacity="0"></use></g></g><g><use xlink:href="#aEhuunmkm" opacity="1" fill="#97b94d" fill-opacity="1"></use><g><use xlink:href="#aEhuunmkm" opacity="1" fill-opacity="0" stroke="#000000" stroke-width="1" stroke-opacity="0"></use></g></g><g><use xlink:href="#i1rhvgRJJq" opacity="1" fill="#97b94d" fill-opacity="1"></use><g><use xlink:href="#i1rhvgRJJq" opacity="1" fill-opacity="0" stroke="#000000" stroke-width="1" stroke-opacity="0"></use></g></g><g><use xlink:href="#dKa8u5eNL" opacity="1" fill="#97b94d" fill-opacity="1"></use><g><use xlink:href="#dKa8u5eNL" opacity="1" fill-opacity="0" stroke="#000000" stroke-width="1" stroke-opacity="0"></use></g></g><g><use xlink:href="#a5J2Yc1A7l" opacity="1" fill="#97b94d" fill-opacity="1"></use><g><use xlink:href="#a5J2Yc1A7l" opacity="1" fill-opacity="0" stroke="#000000" stroke-width="1" stroke-opacity="0"></use></g></g><g><use xlink:href="#a3Xfd2Yws" opacity="1" fill="#97b94d" fill-opacity="1"></use><g><use xlink:href="#a3Xfd2Yws" opacity="1" fill-opacity="0" stroke="#000000" stroke-width="1" stroke-opacity="0"></use></g></g><g><use xlink:href="#boSkpiCm6" opacity="1" fill="#97b94d" fill-opacity="1"></use><g><use xlink:href="#boSkpiCm6" opacity="1" fill-opacity="0" stroke="#000000" stroke-width="1" stroke-opacity="0"></use></g></g><g><use xlink:href="#a2L2soMvDu" opacity="1" fill="#97b94d" fill-opacity="1"></use><g><use xlink:href="#a2L2soMvDu" opacity="1" fill-opacity="0" stroke="#000000" stroke-width="1" stroke-opacity="0"></use></g></g><g><use xlink:href="#b6KobsbFvB" opacity="1" fill="#97b94d" fill-opacity="1"></use><g><use xlink:href="#b6KobsbFvB" opacity="1" fill-opacity="0" stroke="#000000" stroke-width="1" stroke-opacity="0"></use></g></g><g><use xlink:href="#h1UyYxV2oE" opacity="1" fill="#97b94d" fill-opacity="1"></use><g><use xlink:href="#h1UyYxV2oE" opacity="1" fill-opacity="0" stroke="#000000" stroke-width="1" stroke-opacity="0"></use></g></g><g><use xlink:href="#aKO7oMxND" opacity="1" fill="#97b94d" fill-opacity="1"></use><g><use xlink:href="#aKO7oMxND" opacity="1" fill-opacity="0" stroke="#000000" stroke-width="1" stroke-opacity="0"></use></g></g><g><use xlink:href="#ce984TViV" opacity="1" fill="#97b94d" fill-opacity="1"></use><g><use xlink:href="#ce984TViV" opacity="1" fill-opacity="0" stroke="#000000" stroke-width="1" stroke-opacity="0"></use></g></g><g><use xlink:href="#egtHeWWrB" opacity="1" fill="#97b94d" fill-opacity="1"></use><g><use xlink:href="#egtHeWWrB" opacity="1" fill-opacity="0" stroke="#000000" stroke-width="1" stroke-opacity="0"></use></g></g><g><use xlink:href="#e2uX6Gmwi8" opacity="1" fill="#97b94d" fill-opacity="1"></use><g><use xlink:href="#e2uX6Gmwi8" opacity="1" fill-opacity="0" stroke="#000000" stroke-width="1" stroke-opacity="0"></use></g></g><g><use xlink:href="#a3rafv1arg" opacity="1" fill="#97b94d" fill-opacity="1"></use><g><use xlink:href="#a3rafv1arg" opacity="1" fill-opacity="0" stroke="#000000" stroke-width="1" stroke-opacity="0"></use></g></g><g><use xlink:href="#b2JiXY7Ef4" opacity="1" fill="#97b94d" fill-opacity="1"></use><g><use xlink:href="#b2JiXY7Ef4" opacity="1" fill-opacity="0" stroke="#000000" stroke-width="1" stroke-opacity="0"></use></g></g><g><use xlink:href="#a4jTBvx7rl" opacity="1" fill="#97b94d" fill-opacity="1"></use><g><use xlink:href="#a4jTBvx7rl" opacity="1" fill-opacity="0" stroke="#000000" stroke-width="1" stroke-opacity="0"></use></g></g></g></g></svg>